<svg width="235" height="69" viewBox="0 0 235 69" fill="none" xmlns="http://www.w3.org/2000/svg">
<g clip-path="url(#clip0_1382_305)">
<path d="M0 19.5343C0 13.6509 1.72098 8.92432 5.16294 5.35459C8.6049 1.78486 13.3045 0 19.2617 0C25.2852 0 31.441 0.594955 37.7292 1.78487L35.7434 17.6503C29.1905 16.1299 24.6894 15.3697 22.2404 15.3697C19.1294 15.3697 17.5739 16.6257 17.5739 19.1377C17.5739 20.1293 18.302 21.0878 19.7582 22.0133C21.2806 22.9388 23.1009 23.9304 25.219 24.9881C27.3371 25.9797 29.4552 27.2027 31.5734 28.657C33.6915 30.0452 35.4787 32.0614 36.9349 34.7057C38.4573 37.3499 39.2185 40.3908 39.2185 43.8283C39.2185 50.1084 37.5306 54.9672 34.1548 58.4047C30.7791 61.8422 25.9802 63.561 19.7582 63.561C13.6024 63.561 7.57893 62.6025 1.68788 60.6854L2.78005 45.9107C9.86254 47.96 14.7938 48.9846 17.5739 48.9846C20.3539 48.9846 21.7439 47.7616 21.7439 45.3157C21.7439 44.0597 20.9827 42.9028 19.4603 41.8451C18.0041 40.7875 16.2169 39.7298 14.0988 38.6721C11.9807 37.6144 9.82945 36.3914 7.64512 35.0032C5.527 33.6149 3.70673 31.5987 2.18432 28.9545C0.728107 26.3102 0 23.1702 0 19.5343Z" fill="white"/>
<path d="M135.065 62.5694H118.781L105.973 33.9124H105.179V62.5694H90.0874V0.991589H106.867L119.079 30.541H119.874V0.991589H135.065V62.5694Z" fill="white"/>
<path d="M187.688 62.5694H168.923L161.477 39.3662H160.484V62.5694H144.002V0.991589H160.484V26.773H161.477L170.412 0.991589H188.681L176.668 32.8217L187.688 62.5694Z" fill="white"/>
<path d="M234.09 0.991589L219.396 43.5309V62.5694H202.517V43.5309L188.021 0.991589H206.687L211.155 21.0217H211.949L216.219 0.991589H234.09Z" fill="white"/>
<path d="M86.3567 10.1865L80.228 11.7148C79.1887 9.55659 77.9469 5.04216 81.2934 4.25C84.6399 3.45784 86.0633 7.87758 86.3567 10.1865Z" fill="white"/>
<path d="M92.1912 34.4848C92.3351 26.7662 90.193 9.429 82.6241 10.3643C75.0553 11.2997 86.3743 40.8804 66.5039 44.2598C49.6318 47.1293 45.615 31.8676 40.815 23.7817C39.7084 18.418 36.8297 18.4408 33.7615 19.1529C28.6098 20.3485 30.7523 38.3854 35.0133 47.0512C39.2744 55.7169 47.2884 68.8693 71.5556 64.4563C92.6759 60.6155 92.1206 38.2655 92.1912 34.4848Z" fill="#FDF562" stroke="white" stroke-width="2.5"/>
</g>
<defs>
<clipPath id="clip0_1382_305">
<rect width="234.09" height="69.0002" fill="white"/>
</clipPath>
</defs>
</svg>
