<svg width="235" height="65" viewBox="0 0 235 65" fill="none" xmlns="http://www.w3.org/2000/svg">
<path d="M0 18.6246C0 13.0152 1.73333 8.5087 5.2 5.10522C8.66667 1.70174 13.4 0 19.4 0C25.4667 0 31.6667 0.567247 38 1.70174L36 16.8283C29.4 15.3787 24.8667 14.6539 22.4 14.6539C19.2667 14.6539 17.7 15.8514 17.7 18.2464C17.7 19.1918 18.4333 20.1057 19.9 20.9881C21.4333 21.8705 23.2667 22.8159 25.4 23.8244C27.5333 24.7698 29.6667 25.9358 31.8 27.3224C33.9333 28.6459 35.7333 30.5683 37.2 33.0894C38.7333 35.6105 39.5 38.5097 39.5 41.7872C39.5 47.7747 37.8 52.4073 34.4 55.6847C31 58.9621 26.1667 60.6008 19.9 60.6008C13.7 60.6008 7.63333 59.6869 1.7 57.8591L2.8 43.7725C9.93333 45.7264 14.9 46.7033 17.7 46.7033C20.5 46.7033 21.9 45.5373 21.9 43.2053C21.9 42.0077 21.1333 40.9048 19.6 39.8963C18.1333 38.8879 16.3333 37.8795 14.2 36.871C12.0667 35.8626 9.9 34.6966 7.7 33.373C5.56667 32.0494 3.73333 30.1271 2.2 27.606C0.733333 25.0849 0 22.0911 0 18.6246Z" fill="black"/>
<path d="M134.473 59.6554H118.073L105.173 32.333H104.373V59.6554H89.1727V0.945409H106.073L118.373 29.1186H119.173V0.945409H134.473V59.6554Z" fill="black"/>
<path d="M187.474 59.6554H168.574L161.074 37.5328H160.074V59.6554H143.474V0.945409H160.074V25.5261H161.074L170.074 0.945409H188.474L176.374 31.2931L187.474 59.6554Z" fill="black"/>
<path d="M234.209 0.945409L219.409 41.5035V59.6554H202.409V41.5035L187.809 0.945409H206.609L211.109 20.0427H211.909L216.209 0.945409H234.209Z" fill="black"/>
<path d="M85.7091 10.7188L79.7261 12.1293C78.7115 10.1374 77.4992 5.9709 80.7662 5.23978C84.0332 4.50867 85.4227 8.58781 85.7091 10.7188Z" fill="black"/>
<path d="M91.3996 33.1444C91.5401 26.0207 89.4489 10.0196 82.06 10.8828C74.6711 11.7461 85.721 39.0472 66.323 42.1662C49.852 44.8145 45.9307 30.729 41.2448 23.2662C40.1645 18.3158 37.3542 18.3369 34.3589 18.9941C29.3298 20.0976 31.4213 36.7445 35.581 44.7424C39.7408 52.7403 47.5642 64.8792 71.2545 60.8062C91.8727 57.2614 91.3307 36.6338 91.3996 33.1444Z" fill="#FDF562" stroke="black" stroke-width="3"/>
</svg>
